<svg width="48" height="48" viewBox="0 0 48 48" fill="none" xmlns="http://www.w3.org/2000/svg">
<path fill-rule="evenodd" clip-rule="evenodd" d="M24 1C22.8954 1 22 1.89543 22 3V6H10.5C9.11929 6 8 7.11929 8 8.5C8 9.88071 9.11929 11 10.5 11H38.5C39.8807 11 41 9.88071 41 8.5C41 7.11929 39.8807 6 38.5 6H27V3C27 1.89543 26.1046 1 25 1H24ZM31 17H18C15.2386 17 13 19.2386 13 22V37C13 39.7614 15.2386 42 18 42H31C33.7614 42 36 39.7614 36 37V22C36 19.2386 33.7614 17 31 17ZM18 12C12.4772 12 8 16.4772 8 22V37C8 42.5228 12.4772 47 18 47H31C36.5228 47 41 42.5229 41 37V22C41 16.4772 36.5228 12 31 12H18Z" fill="#262D69"/>
<rect x="17" y="24" width="5" height="15" rx="2.5" fill="#E54242"/>
<rect x="27" y="24" width="5" height="15" rx="2.5" fill="#E54242"/>
</svg>
