<svg width="48" height="48" viewBox="0 0 48 48" fill="none" xmlns="http://www.w3.org/2000/svg">
<g clip-path="url(#clip0_800_876)">
<path fill-rule="evenodd" clip-rule="evenodd" d="M37.8392 21.9196C37.8392 30.7118 30.7118 37.8392 21.9196 37.8392C13.1274 37.8392 6 30.7118 6 21.9196C6 13.1274 13.1274 6 21.9196 6C30.7118 6 37.8392 13.1274 37.8392 21.9196ZM34.7785 39.6731C31.1665 42.2938 26.7235 43.8392 21.9196 43.8392C9.81374 43.8392 0 34.0255 0 21.9196C0 9.81374 9.81374 0 21.9196 0C34.0255 0 43.8392 9.81374 43.8392 21.9196C43.8392 26.7235 42.2938 31.1665 39.6731 34.7785L46.9863 42.0917C48.3379 43.4433 48.3379 45.6347 46.9863 46.9863C45.6347 48.3379 43.4433 48.3379 42.0917 46.9863L34.7785 39.6731Z" fill="#262D69"/>
</g>
<defs>
<clipPath id="clip0_800_876">
<rect width="48" height="48" fill="white"/>
</clipPath>
</defs>
</svg>
